<svg xmlns="http://www.w3.org/2000/svg" version="1.1" xmlns:xlink="http://www.w3.org/1999/xlink" xmlns:svgjs="http://svgjs.com/svgjs" height="58.625111818526875" width="288.17124938964844"><defs id="SvgjsDefs1092"></defs><g id="SvgjsG1093" rel="mainfill" name="main_text" xmlns:name="main_text" transform="translate(79.29999995231628,-200.077443480385)" fill="#ffffff"><path d="M13.03 240.39Q9.47 240.39 7.44 239.06Q5.40 237.73 4.33 235.58Q3.26 233.44 2.98 230.76Q2.70 228.08 2.70 225.38Q2.70 223.97 2.83 222.36Q2.96 220.75 3.34 219.19Q3.73 217.62 4.44 216.19Q5.14 214.75 6.30 213.66Q7.46 212.57 9.11 211.90Q10.76 211.24 13.03 211.24Q16.46 211.24 18.54 212.44Q20.62 213.64 21.75 215.61Q22.89 217.58 23.25 220.13Q23.62 222.68 23.62 225.38Q23.62 227.61 23.43 229.84Q23.23 232.07 22.55 234.02Q21.86 235.97 20.60 237.47Q19.33 238.97 17.23 239.74L24.00 241.50Q24.22 241.54 24.26 241.65Q24.30 241.76 24.26 241.84L23.79 243.26Q23.66 243.47 23.36 243.39L14.53 240.30Q14.19 240.34 13.80 240.36Q13.42 240.39 13.03 240.39M13.03 212.65Q10.46 212.65 8.77 213.66Q7.07 214.67 6.07 216.42Q5.06 218.18 4.67 220.58Q4.29 222.98 4.29 225.81Q4.29 228.51 4.65 230.91Q5.02 233.31 5.98 235.11Q6.94 236.91 8.64 237.94Q10.33 238.97 13.03 238.97Q15.65 238.97 17.38 238.01Q19.12 237.04 20.17 235.28Q21.22 233.53 21.67 231.13Q22.12 228.73 22.12 225.81Q22.12 222.85 21.71 220.43Q21.30 218.01 20.28 216.27Q19.25 214.54 17.49 213.59Q15.73 212.65 13.03 212.65ZM47.84 239.74Q47.92 239.91 47.90 239.96Q47.88 240 47.67 240L46.51 240Q46.42 240 46.34 239.98Q46.25 239.96 46.17 239.74L43.68 231.98L31.29 231.98L28.81 239.74Q28.76 239.96 28.70 239.98Q28.63 240 28.51 240L27.43 240Q27.09 240 27.18 239.74L36.48 211.88Q36.56 211.67 36.63 211.64Q36.69 211.62 36.82 211.62L38.15 211.62Q38.36 211.62 38.49 211.92L47.84 239.74M37.51 213.42L37.38 213.42L31.76 230.57L43.21 230.57L37.51 213.42ZM75.19 239.19Q75.23 239.44 74.97 239.53Q74.33 239.74 73.47 239.91Q72.61 240.09 71.69 240.19Q70.77 240.30 69.94 240.34Q69.10 240.39 68.54 240.39Q66.01 240.39 64.53 239.59Q63.06 238.80 62.24 237.34Q61.43 235.88 61.19 233.87Q60.96 231.86 60.96 229.41Q60.96 227.23 61.21 225.28Q61.47 223.33 62.28 221.87Q63.10 220.41 64.64 219.55Q66.18 218.70 68.76 218.70Q69.31 218.70 70.13 218.74Q70.94 218.78 71.80 218.89Q72.66 219.00 73.49 219.17Q74.33 219.34 74.97 219.55Q75.23 219.64 75.19 219.90L75.10 220.32Q75.02 220.58 74.72 220.54Q73.00 220.32 71.61 220.20Q70.21 220.07 68.89 220.07Q67.09 220.07 65.86 220.56Q64.64 221.05 63.89 222.17Q63.14 223.28 62.82 225.06Q62.50 226.84 62.50 229.37Q62.50 232.03 62.80 233.85Q63.10 235.67 63.83 236.81Q64.56 237.94 65.78 238.46Q67.00 238.97 68.89 238.97Q70.21 238.97 71.91 238.84Q73.60 238.71 74.76 238.54Q74.97 238.50 75.02 238.56Q75.06 238.63 75.10 238.76L75.19 239.19ZM85.90 240.34Q83.03 240.34 81.40 239.34Q79.77 238.33 78.96 236.74Q78.14 235.16 77.95 233.16Q77.76 231.17 77.76 229.15Q77.76 227.57 78.02 225.73Q78.27 223.88 79.11 222.32Q79.94 220.75 81.55 219.72Q83.16 218.70 85.90 218.70Q88.69 218.70 90.36 219.60Q92.03 220.50 92.91 221.97Q93.79 223.45 94.07 225.32Q94.35 227.18 94.35 229.15Q94.35 231.08 94.13 233.08Q93.92 235.07 93.08 236.68Q92.25 238.29 90.55 239.31Q88.86 240.34 85.90 240.34M85.90 220.11Q83.80 220.11 82.52 220.84Q81.23 221.57 80.52 222.83Q79.82 224.10 79.58 225.81Q79.34 227.53 79.34 229.50Q79.34 231.51 79.58 233.25Q79.82 234.98 80.52 236.27Q81.23 237.56 82.52 238.29Q83.80 239.01 85.90 239.01Q88.05 239.01 89.40 238.31Q90.75 237.60 91.50 236.33Q92.25 235.07 92.50 233.33Q92.76 231.60 92.76 229.50Q92.76 227.40 92.50 225.66Q92.25 223.93 91.52 222.70Q90.79 221.48 89.44 220.80Q88.09 220.11 85.90 220.11ZM108.67 218.74Q110.77 218.74 111.77 219.64Q112.78 220.54 113.21 221.95Q115.27 220.71 117.50 219.72Q119.72 218.74 122.17 218.74Q124.18 218.74 125.21 219.60Q126.24 220.45 126.67 221.78Q127.10 223.11 127.12 224.76Q127.14 226.41 127.14 227.95L127.14 239.74Q127.14 240 126.93 240L125.77 240Q125.64 240 125.64 239.74L125.64 227.78Q125.64 226.45 125.62 225.08Q125.60 223.71 125.28 222.58Q124.95 221.44 124.16 220.73Q123.37 220.02 121.87 220.02Q120.92 220.02 119.72 220.37Q118.52 220.71 117.37 221.18Q116.21 221.65 115.20 222.15Q114.19 222.64 113.59 222.90L113.47 222.98Q113.68 224.14 113.66 225.43Q113.64 226.71 113.64 227.95L113.68 239.74Q113.68 240 113.47 240L112.27 240Q112.14 240 112.14 239.74L112.14 227.78Q112.14 226.45 112.12 225.08Q112.09 223.71 111.77 222.58Q111.45 221.44 110.66 220.73Q109.87 220.02 108.36 220.02Q107.42 220.02 106.22 220.37Q105.02 220.71 103.86 221.16Q102.71 221.61 101.70 222.10Q100.69 222.60 100.13 222.90L100.13 239.74Q100.13 240 99.92 240L98.81 240Q98.68 240 98.68 239.74L98.68 219.38Q98.68 219.12 98.81 219.12L99.92 219.12Q100.13 219.12 100.13 219.38L100.13 221.70Q100.78 221.31 101.74 220.80Q102.71 220.28 103.82 219.83Q104.94 219.38 106.18 219.06Q107.42 218.74 108.67 218.74ZM132.16 219.34Q132.16 219.08 132.28 219.08L133.40 219.08Q133.61 219.08 133.61 219.34L133.61 221.61Q134.34 221.18 135.31 220.67Q136.27 220.15 137.39 219.72Q138.50 219.30 139.72 219.00Q140.94 218.70 142.19 218.70Q143.94 218.70 145.14 219.32Q146.34 219.94 147.05 221.22Q147.76 222.51 148.06 224.50Q148.36 226.50 148.36 229.20Q148.36 231.98 148.02 234.08Q147.67 236.18 146.79 237.58Q145.92 238.97 144.44 239.68Q142.96 240.39 140.64 240.39Q139.40 240.39 137.58 240.15Q135.76 239.91 133.70 239.06L133.57 239.10L133.57 247.29Q133.57 247.54 133.36 247.54L132.28 247.54Q132.16 247.54 132.16 247.29L132.16 219.34M133.61 237.81Q135.76 238.46 137.51 238.76Q139.27 239.06 140.90 239.06Q144.24 239.06 145.53 236.70Q146.82 234.34 146.82 229.07Q146.82 226.50 146.52 224.76Q146.22 223.03 145.59 221.97Q144.97 220.92 144.05 220.50Q143.13 220.07 141.84 220.07Q140.90 220.07 139.70 220.41Q138.50 220.75 137.34 221.20Q136.18 221.65 135.18 222.17Q134.17 222.68 133.61 222.98L133.61 237.81ZM166.66 237.43Q165.59 238.07 164.56 238.61Q163.53 239.14 162.40 239.53Q161.26 239.91 159.98 240.15Q158.69 240.39 157.10 240.39Q154.45 240.39 153.20 239.01Q151.96 237.64 151.96 234.90Q151.96 231.21 153.72 229.58Q155.47 227.95 159.25 227.95L166.66 227.95L166.66 225.47Q166.66 224.14 166.43 223.11Q166.19 222.08 165.55 221.42Q164.91 220.75 163.73 220.41Q162.55 220.07 160.70 220.07Q159.08 220.07 157.49 220.22Q155.90 220.37 154.27 220.54Q153.97 220.54 153.93 220.32L153.85 219.85Q153.85 219.64 154.06 219.55Q154.79 219.30 155.69 219.10Q156.59 218.91 157.49 218.80Q158.39 218.70 159.18 218.65Q159.98 218.61 160.58 218.61Q162.76 218.61 164.22 218.97Q165.68 219.34 166.56 220.17Q167.43 221.01 167.78 222.36Q168.12 223.71 168.12 225.68L168.12 237.34Q168.12 238.46 168.53 238.71Q168.93 238.97 170.13 239.01Q170.39 239.01 170.39 239.27L170.39 239.83Q170.39 240.13 169.96 240.17Q168.03 240.30 167.35 239.74Q166.66 239.19 166.66 237.43M166.66 229.33L159.08 229.33Q157.88 229.33 156.87 229.54Q155.86 229.76 155.11 230.36Q154.36 230.96 153.95 232.01Q153.55 233.06 153.55 234.73Q153.55 237.21 154.51 238.11Q155.47 239.01 157.96 239.01Q159.08 239.01 160.43 238.65Q161.78 238.29 163.02 237.79Q164.26 237.30 165.25 236.81Q166.23 236.31 166.66 236.10L166.66 229.33ZM183.38 218.74Q185.52 218.74 186.70 219.36Q187.88 219.98 188.42 221.05Q188.95 222.12 189.06 223.54Q189.17 224.95 189.17 226.50L189.17 239.74Q189.17 240 188.91 240L187.84 240Q187.62 240 187.62 239.74L187.62 226.33Q187.62 225.00 187.54 223.84Q187.45 222.68 187.00 221.85Q186.55 221.01 185.63 220.52Q184.71 220.02 183.08 220.02Q182.14 220.02 180.94 220.37Q179.74 220.71 178.58 221.16Q177.42 221.61 176.41 222.10Q175.41 222.60 174.85 222.90L174.85 239.74Q174.85 240 174.55 240L173.61 240Q173.39 240 173.39 239.74L173.39 219.38Q173.39 219.12 173.61 219.12L174.55 219.12Q174.85 219.12 174.85 219.38L174.85 221.70Q175.49 221.31 176.46 220.80Q177.42 220.28 178.54 219.83Q179.65 219.38 180.89 219.06Q182.14 218.74 183.38 218.74ZM198.68 247.33Q198.64 247.42 198.60 247.48Q198.55 247.54 198.34 247.54L197.48 247.54Q197.27 247.54 197.23 247.52Q197.18 247.50 197.23 247.29L199.58 240.47L192.25 219.34Q192.17 219.12 192.42 219.12L193.45 219.12Q193.80 219.12 193.88 219.42L200.31 238.33L200.40 238.33L207.30 219.38Q207.39 219.08 207.73 219.08L208.63 219.08Q208.84 219.08 208.86 219.15Q208.89 219.21 208.84 219.38L198.68 247.33L198.68 247.33Z" fill="#ffffff" style="fill: rgb(255, 255, 255);"></path></g><g id="SvgjsG1094" rel="mainfill" name="symbol" xmlns:name="symbol_mainfill" transform="translate(0,-4.187507987037634) scale(0.13085962459492606)" fill="#ffffff"><g fill="#ffffff"><path d="M501.344,32H10.672C4.781,32,0,36.773,0,42.664V384c0,5.891,4.781,10.664,10.672,10.664h177.031l-12.766,64h-4.266   c-5.891,0-10.672,4.781-10.672,10.672S164.781,480,170.672,480h170.672c5.891,0,10.656-4.773,10.656-10.664   s-4.766-10.672-10.656-10.672h-4.266l-12.797-64h177.062c5.891,0,10.656-4.773,10.656-10.664V42.664   C512,36.773,507.234,32,501.344,32z M196.688,458.664l12.75-63.914l93.109-0.023l12.781,63.938H196.688z M490.672,160h-64V53.336   h64V160z M426.672,181.336h64v149.328h-64V181.336z M405.344,53.336v277.328h-384V53.336H405.344z M256,373.336H21.344V352H256   h234.672v21.336H256z" fill="#ffffff" style="fill: rgb(255, 255, 255);"></path><path d="M266.672,362.664c0-5.891-4.766-10.664-10.672-10.664c-5.891,0-10.656,4.773-10.656,10.664s4.766,10.672,10.656,10.672   C261.906,373.336,266.672,368.555,266.672,362.664z" fill="#ffffff" style="fill: rgb(255, 255, 255);"></path><path d="M225.531,245.125h73.141l-65.016-113.781l-37.266,65.219l-19.625-32.711L128,245.125h40.641H225.531z M233.656,174.344   l28.25,49.445h-56.5L233.656,174.344z M165.688,223.789l11.078-18.469l7.484,12.477l-3.422,5.992H165.688z" fill="#ffffff" style="fill: rgb(255, 255, 255);"></path><rect x="85.344" y="96" width="21.328" height="21.336"></rect><rect x="202.672" y="96" width="21.328" height="21.336"></rect><rect x="320" y="96" width="21.344" height="21.336"></rect><rect x="320" y="181.336" width="21.344" height="21.328"></rect><rect x="320" y="266.664" width="21.344" height="21.336"></rect><rect x="85.344" y="266.664" width="21.328" height="21.336"></rect><rect x="85.344" y="181.336" width="21.328" height="21.328"></rect><rect x="202.672" y="266.664" width="21.328" height="21.336"></rect></g></g></svg>