<!DOCTYPE svg PUBLIC "-//W3C//DTD SVG 20010904//EN" "http://www.w3.org/TR/2001/REC-SVG-20010904/DTD/svg10.dtd">
<svg version="1.0" xmlns="http://www.w3.org/2000/svg" width="1600px" height="800px" viewBox="0 0 16000 8000" preserveAspectRatio="xMidYMid meet">
<g id="layer101" fill="#000000" stroke="none">
 <path d="M737 7885 c-66 -12 -104 -25 -197 -69 -52 -25 -160 -103 -160 -115 0 -5 14 -23 30 -41 17 -18 30 -34 30 -36 0 -3 17 -22 38 -44 l37 -38 67 49 c37 27 72 49 77 49 6 0 25 8 43 19 92 52 285 48 346 -8 81 -73 60 -174 -46 -223 -49 -22 -58 -25 -187 -57 -98 -25 -195 -60 -216 -78 -8 -7 -20 -13 -26 -13 -19 0 -98 -84 -118 -125 -15 -32 -19 -62 -19 -145 0 -95 3 -110 27 -155 27 -51 102 -135 120 -135 6 0 18 -7 28 -16 28 -25 157 -54 246 -54 90 0 209 25 288 60 28 13 52 26 55 29 3 4 22 17 43 30 26 16 37 30 37 47 0 13 -4 24 -8 24 -5 0 -18 18 -31 40 -12 22 -26 40 -32 40 -5 0 -9 6 -9 14 0 7 -6 19 -14 25 -16 13 -36 6 -108 -38 -25 -16 -81 -39 -124 -51 -90 -25 -158 -23 -219 6 -47 23 -88 86 -80 124 10 42 29 80 41 80 6 0 17 6 23 14 6 8 49 25 94 39 156 49 217 67 228 67 5 0 29 9 51 20 23 11 45 20 49 20 12 0 78 47 104 72 12 13 34 45 49 73 23 44 26 61 26 146 0 82 -4 105 -25 152 -32 69 -89 128 -157 163 -97 50 -256 65 -401 39z"/>
 <path d="M6435 7888 c-88 -17 -183 -66 -240 -123 -30 -29 -75 -92 -75 -103 0 -6 -8 -27 -19 -49 -35 -72 -41 -147 -41 -551 l0 -392 110 0 110 0 0 373 c0 204 5 388 10 407 27 108 78 178 155 215 56 27 213 27 268 1 70 -34 114 -87 142 -171 18 -55 20 -92 23 -442 l3 -383 110 0 109 0 0 368 c0 394 -9 493 -50 586 -65 145 -177 232 -335 262 -80 15 -207 16 -280 2z"/>
 <path d="M14830 7885 c-67 -15 -136 -42 -172 -67 -14 -10 -31 -18 -36 -18 -9 0 -134 -119 -158 -151 -19 -25 -62 -113 -82 -169 -50 -134 -36 -358 31 -485 6 -11 15 -29 21 -40 40 -75 117 -155 201 -210 137 -89 358 -124 515 -81 78 21 200 80 243 118 18 15 37 31 42 36 35 30 90 107 120 169 82 168 86 397 11 553 -46 95 -55 108 -114 167 -78 80 -113 103 -217 149 -96 42 -288 55 -405 29z m331 -232 c53 -27 159 -124 159 -145 0 -6 7 -19 15 -28 8 -9 25 -60 37 -112 l21 -94 -22 -96 c-12 -53 -29 -102 -37 -108 -7 -7 -14 -18 -14 -24 0 -18 -82 -101 -130 -131 -83 -52 -212 -69 -317 -41 -64 17 -152 75 -189 124 -16 20 -32 39 -36 40 -4 2 -8 9 -8 16 0 7 -10 32 -22 57 -20 38 -23 60 -22 164 0 110 2 125 27 176 15 32 34 62 42 69 8 7 15 16 15 21 0 8 29 38 74 76 24 20 100 56 136 64 19 5 76 6 127 4 76 -4 102 -9 144 -32z"/>
 <path d="M3550 7380 l0 -500 -195 0 -195 0 0 -105 0 -105 500 0 500 0 0 105 0 105 -195 0 -195 0 0 500 0 500 -110 0 -110 0 0 -500z"/>
 <path d="M9090 7275 l0 -605 263 0 c337 0 373 5 517 73 311 146 416 565 218 872 -21 34 -112 124 -159 160 -27 20 -125 63 -192 84 -62 19 -91 21 -357 21 l-290 0 0 -605z m598 377 c201 -69 310 -288 246 -497 -28 -93 -103 -193 -168 -223 -102 -48 -97 -47 -273 -50 l-173 -3 0 401 0 402 153 -4 c121 -4 165 -9 215 -26z"/>
 <path d="M12160 7275 l0 -605 110 0 110 0 0 605 0 605 -110 0 -110 0 0 -605z"/>
 <path d="M5705 4879 c-174 -8 -366 -44 -520 -98 -154 -55 -178 -64 -208 -84 -14 -9 -32 -17 -39 -17 -7 0 -24 -9 -38 -20 -14 -11 -31 -20 -38 -20 -8 0 -26 -8 -40 -18 -15 -10 -34 -22 -42 -26 -8 -3 -35 -20 -60 -36 -25 -17 -53 -33 -62 -36 -10 -4 -18 -9 -18 -13 0 -3 -18 -17 -40 -31 -22 -14 -40 -28 -40 -32 0 -5 -5 -8 -11 -8 -27 0 -249 -202 -354 -320 -70 -80 -195 -245 -195 -258 0 -5 -7 -16 -16 -23 -9 -7 -20 -22 -25 -34 -5 -11 -22 -42 -39 -70 -26 -43 -69 -128 -141 -278 -11 -22 -19 -43 -19 -49 0 -5 -6 -24 -14 -41 -33 -73 -83 -246 -121 -417 -9 -41 -23 -161 -32 -267 -13 -171 -13 -213 1 -385 15 -191 29 -281 67 -409 10 -36 19 -72 19 -81 0 -8 8 -37 19 -64 10 -27 28 -76 41 -109 54 -145 186 -407 237 -470 9 -11 82 -119 98 -144 6 -9 12 -18 15 -21 3 -3 25 -30 50 -60 24 -30 57 -67 72 -83 15 -15 28 -30 28 -33 0 -5 65 -70 145 -144 21 -19 65 -56 99 -82 34 -26 68 -54 77 -63 9 -8 21 -15 27 -15 5 0 12 -4 14 -8 3 -9 96 -72 105 -72 4 0 14 -6 22 -14 37 -33 299 -160 421 -204 417 -150 978 -167 1365 -41 33 10 67 19 75 19 8 1 33 9 55 20 22 11 45 19 52 20 6 0 28 9 50 19 21 11 52 26 68 34 38 18 164 84 190 100 11 7 46 29 78 50 32 20 62 37 67 37 5 0 10 3 12 8 2 4 26 24 53 45 105 78 134 104 263 236 164 167 162 165 162 179 0 7 4 12 10 12 8 0 71 83 105 139 6 9 27 41 47 71 20 30 42 67 49 82 7 16 16 28 21 28 4 0 8 8 8 18 0 9 9 28 20 42 11 14 20 32 20 40 0 8 9 26 20 40 11 14 20 30 20 37 0 6 8 28 19 50 38 79 61 134 61 147 0 7 7 27 15 44 22 43 45 123 88 312 73 311 71 686 -4 1025 -52 231 -157 502 -264 680 -13 22 -27 47 -31 55 -23 46 -177 263 -214 300 -40 40 -42 56 -13 92 16 18 33 38 40 43 6 6 44 48 85 95 94 109 127 147 158 181 76 82 102 112 170 189 41 47 83 94 93 105 10 11 28 32 39 48 l19 27 -440 0 c-386 0 -442 -2 -453 -16 -7 -8 -30 -32 -50 -54 -21 -21 -38 -40 -38 -43 0 -2 -23 -28 -51 -58 -28 -30 -63 -69 -76 -86 -30 -39 -41 -40 -88 -8 -20 13 -82 46 -139 74 -95 46 -126 60 -216 91 -19 7 -50 19 -69 27 -19 8 -53 18 -75 23 -23 5 -66 16 -96 24 -183 50 -438 69 -725 55z m388 -834 c95 -14 183 -36 242 -60 51 -21 160 -69 164 -71 3 -3 -131 -160 -216 -253 -24 -25 -51 -55 -61 -66 -10 -11 -52 -58 -92 -105 -117 -134 -124 -142 -150 -170 -71 -77 -93 -102 -135 -151 -25 -29 -45 -59 -45 -66 0 -11 83 -13 433 -13 l432 0 21 23 c11 12 54 60 95 107 96 110 126 144 170 192 l37 40 15 -29 c155 -288 225 -511 247 -791 19 -233 -6 -456 -78 -692 -14 -47 -29 -89 -33 -95 -3 -5 -10 -21 -14 -35 -12 -38 -93 -199 -125 -250 -17 -25 -33 -52 -37 -60 -3 -8 -9 -17 -12 -20 -3 -3 -26 -32 -51 -64 -124 -163 -320 -314 -510 -395 -30 -13 -69 -29 -86 -36 -17 -7 -93 -25 -170 -40 -127 -25 -152 -27 -289 -22 -82 3 -167 11 -189 17 -21 6 -59 15 -85 20 -49 8 -118 31 -191 63 -42 18 -53 23 -105 51 -106 58 -244 169 -332 268 -25 29 -50 55 -55 56 -4 2 -8 10 -8 17 0 8 -6 18 -13 22 -12 7 -52 67 -111 166 -23 39 -76 145 -76 153 0 3 -7 20 -15 37 -81 176 -138 471 -137 707 1 287 65 557 189 808 36 72 70 132 75 132 4 0 8 5 8 11 0 21 116 166 200 248 186 184 433 312 667 346 122 17 311 18 426 0z"/>
 <path d="M8252 4843 c20 -42 68 -166 68 -176 0 -4 8 -26 18 -50 10 -23 24 -58 31 -77 7 -19 22 -57 33 -85 11 -27 28 -72 38 -100 10 -27 28 -75 40 -105 12 -30 30 -77 40 -105 10 -27 28 -75 40 -105 12 -30 29 -73 36 -95 8 -22 21 -54 29 -72 8 -17 15 -36 15 -42 0 -6 9 -30 19 -53 10 -24 28 -69 40 -100 40 -109 64 -173 77 -203 12 -28 24 -60 55 -145 7 -19 18 -48 25 -65 13 -32 33 -84 58 -155 9 -25 21 -54 26 -65 5 -11 16 -39 25 -62 8 -24 22 -62 30 -85 9 -24 20 -52 25 -63 5 -11 16 -39 25 -62 27 -77 46 -127 59 -158 13 -29 29 -73 76 -200 12 -33 30 -80 40 -105 10 -25 28 -72 40 -105 12 -33 31 -79 41 -103 10 -23 19 -47 19 -53 0 -6 7 -25 15 -42 8 -18 21 -50 29 -72 7 -22 24 -65 36 -95 30 -75 69 -179 79 -211 5 -15 15 -42 23 -60 8 -19 25 -61 37 -94 12 -33 31 -80 40 -105 10 -25 24 -61 31 -80 6 -19 21 -57 32 -85 11 -27 28 -72 38 -100 10 -27 28 -75 40 -105 12 -30 28 -73 36 -95 8 -22 19 -49 24 -60 5 -11 17 -40 26 -65 31 -88 53 -146 74 -200 12 -30 33 -84 47 -120 13 -36 30 -81 38 -100 7 -19 21 -55 30 -80 9 -25 23 -58 30 -75 8 -16 15 -39 17 -50 3 -20 12 -20 418 -23 l415 -2 24 62 c12 35 31 82 42 106 10 23 19 47 19 53 0 6 7 25 15 42 8 18 21 52 30 77 29 78 46 124 59 155 7 17 18 46 25 65 12 32 40 106 77 203 8 20 21 56 29 80 9 23 20 51 25 62 5 11 17 40 26 65 31 88 53 146 72 195 11 28 26 66 33 85 7 19 19 50 27 69 8 18 18 45 23 60 10 32 49 136 79 211 12 30 29 73 36 95 8 22 21 54 29 72 8 17 15 36 15 42 0 6 8 30 18 54 11 23 29 68 40 100 12 31 32 83 44 115 11 31 29 76 40 99 10 24 18 48 18 54 0 6 7 25 15 42 8 18 21 50 29 72 7 22 24 65 36 95 36 89 71 184 76 205 3 11 14 38 23 60 10 22 24 56 30 75 7 19 22 58 33 85 19 49 41 107 72 195 9 25 21 54 26 65 5 11 16 39 25 63 26 73 46 126 59 157 7 17 18 45 24 63 7 17 17 47 24 65 6 17 17 46 24 62 7 17 19 48 27 70 8 22 25 65 37 95 12 30 30 79 41 108 10 28 28 76 38 105 11 28 28 75 39 102 11 28 26 66 33 85 7 19 19 50 27 69 8 18 18 45 23 60 10 32 49 136 79 211 12 30 28 73 36 95 8 22 19 49 24 60 5 11 18 46 29 78 l20 57 -481 -2 -481 -3 -24 -65 c-13 -36 -32 -87 -43 -115 -10 -27 -23 -66 -31 -85 -7 -19 -21 -54 -31 -77 -10 -24 -18 -48 -18 -55 0 -7 -7 -26 -15 -41 -8 -15 -19 -42 -24 -60 -6 -18 -22 -63 -36 -102 -15 -38 -33 -88 -41 -110 -8 -22 -19 -49 -24 -60 -6 -11 -15 -33 -20 -50 -5 -16 -20 -59 -34 -95 -13 -36 -30 -81 -36 -100 -7 -19 -21 -54 -31 -78 -11 -23 -19 -49 -19 -57 0 -13 -104 -15 -818 -15 l-818 0 -13 33 c-19 47 -60 156 -76 202 -7 22 -25 72 -40 110 -14 39 -33 90 -42 115 -8 25 -19 49 -24 54 -5 6 -9 19 -9 29 0 10 -7 33 -15 50 -15 34 -38 96 -60 164 -8 24 -20 58 -28 75 -17 40 -29 72 -74 203 -19 55 -39 108 -44 118 -9 16 -43 17 -490 17 -264 0 -479 -3 -477 -7z m2848 -1826 c0 -1 -12 -34 -26 -72 -14 -39 -41 -115 -59 -170 -19 -55 -53 -152 -75 -215 -23 -63 -48 -136 -55 -161 -7 -26 -20 -60 -29 -77 -9 -17 -16 -38 -16 -47 0 -9 -7 -30 -17 -48 -9 -18 -20 -45 -24 -62 -4 -16 -21 -68 -39 -115 -17 -47 -35 -98 -40 -115 -5 -16 -23 -68 -40 -115 -17 -47 -35 -98 -40 -115 -8 -27 -28 -83 -90 -250 -12 -33 -26 -73 -31 -90 -4 -16 -19 -61 -32 -99 l-23 -68 -21 63 c-12 35 -31 89 -43 119 -12 30 -28 73 -35 95 -7 22 -28 78 -45 125 -18 47 -36 96 -40 110 -5 14 -21 57 -35 95 -15 39 -33 88 -40 110 -7 22 -25 72 -40 110 -15 39 -45 120 -67 180 -21 61 -48 134 -59 163 -10 28 -28 76 -38 105 -11 28 -32 84 -46 122 -14 39 -30 84 -34 100 -4 17 -15 44 -24 62 -10 18 -17 40 -17 51 0 10 -4 22 -9 28 -5 5 -20 41 -33 79 -14 39 -28 78 -33 88 -7 16 28 17 644 17 358 0 651 -1 651 -3z"/>
 </g>

</svg>