<?xml version="1.0" encoding="iso-8859-1"?>
<!-- Generator: Adobe Illustrator 22.1.0, SVG Export Plug-In . SVG Version: 6.00 Build 0)  -->
<svg xmlns="http://www.w3.org/2000/svg" xmlns:xlink="http://www.w3.org/1999/xlink" version="1.1" id="Layer_1" x="0px" y="0px" viewBox="0 0 64 64" style="enable-background:new 0 0 64 64;" xml:space="preserve" width="512px" height="512px">
<linearGradient id="SVGID_1__79062" gradientUnits="userSpaceOnUse" x1="32" y1="8.375" x2="32" y2="54.6265" spreadMethod="reflect">
	<stop offset="0" style="stop-color:#1A6DFF"/>
	<stop offset="1" style="stop-color:#C822FF"/>
</linearGradient>
<path style="fill:url(#SVGID_1__79062);" d="M52,8H12c-1.654,0-3,1.346-3,3v31c0,1.654,1.346,3,3,3h14v2h-9  c-0.297,0-0.578,0.132-0.769,0.36l-5,6c-0.248,0.298-0.302,0.713-0.137,1.064C11.259,54.775,11.612,55,12,55h40  c0.388,0,0.741-0.225,0.905-0.576c0.165-0.352,0.111-0.767-0.137-1.064l-5-6C47.578,47.132,47.297,47,47,47h-9v-2h14  c1.654,0,3-1.346,3-3V11C55,9.346,53.654,8,52,8z M46.531,49l3.334,4h-35.73l3.334-4H26v2h12v-2H46.531z M36,49h-8v-4h8V49z M53,42  c0,0.551-0.448,1-1,1H38H26H12c-0.552,0-1-0.449-1-1V11c0-0.551,0.448-1,1-1h40c0.552,0,1,0.449,1,1V42z"/>
<linearGradient id="SVGID_2__79062" gradientUnits="userSpaceOnUse" x1="32" y1="8.375" x2="32" y2="54.6265" spreadMethod="reflect">
	<stop offset="0" style="stop-color:#1A6DFF"/>
	<stop offset="1" style="stop-color:#C822FF"/>
</linearGradient>
<path style="fill:url(#SVGID_2__79062);" d="M13,41h38V12H13V41z M15,14h34v25H15V14z"/>
<linearGradient id="SVGID_3__79062" gradientUnits="userSpaceOnUse" x1="22.6777" y1="17.3145" x2="22.6777" y2="35.6855" spreadMethod="reflect">
	<stop offset="0" style="stop-color:#6DC7FF"/>
	<stop offset="1" style="stop-color:#E6ABFF"/>
</linearGradient>
<polygon style="fill:url(#SVGID_3__79062);" points="26.271,17.314 17.627,26.5 26.271,35.686 27.729,34.314 20.373,26.5 27.729,18.686   "/>
<linearGradient id="SVGID_4__79062" gradientUnits="userSpaceOnUse" x1="41.3223" y1="17.3145" x2="41.3223" y2="35.6855" spreadMethod="reflect">
	<stop offset="0" style="stop-color:#6DC7FF"/>
	<stop offset="1" style="stop-color:#E6ABFF"/>
</linearGradient>
<polygon style="fill:url(#SVGID_4__79062);" points="36.271,18.686 43.627,26.5 36.271,34.314 37.729,35.686 46.373,26.5 37.729,17.314   "/>
</svg>
