<svg xmlns="http://www.w3.org/2000/svg" version="1.1" xmlns:xlink="http://www.w3.org/1999/xlink" xmlns:svgjs="http://svgjs.com/svgjs" height="77.41396610462776" width="292.86000061035156"><defs id="SvgjsDefs1006"></defs><g id="SvgjsG1007" rel="mainfill" name="main_text" xmlns:name="main_text" transform="translate(80.76999998092653,-192.1680169476861)" fill="#ffffff"><path d="M18.51 238.32Q20.94 238.32 22.74 238.90Q24.53 239.48 26.18 240.67L22.48 245.50Q20.35 243.10 18.10 241.81Q15.86 240.52 12.53 240.52Q9.05 240.52 6.51 238.93Q3.96 237.34 2.60 234.32Q1.23 231.29 1.23 227.02Q1.23 222.83 2.64 219.77Q4.04 216.70 6.66 215.07Q9.28 213.45 12.90 213.45Q18.44 213.45 21.52 217.00Q24.61 220.55 24.61 227.02Q24.61 234.95 18.51 238.32M7.67 227.02Q7.67 231.81 8.98 233.98Q10.28 236.15 12.90 236.15Q15.60 236.15 16.89 234.00Q18.18 231.85 18.18 227.02Q18.18 222.20 16.87 220.07Q15.56 217.93 12.90 217.93Q10.25 217.93 8.96 220.08Q7.67 222.24 7.67 227.02ZM32.99 234.43L31.68 240L25.32 240L33.14 214.08L40.58 214.08L48.40 240L41.89 240L40.58 234.43L32.99 234.43M36.76 218.53L34.03 229.98L39.49 229.98L36.76 218.53ZM67.66 219.50Q69.71 219.50 71.36 220.10Q73.00 220.70 74.46 221.94L71.88 225.49Q70.09 224.03 68.14 224.03Q66.16 224.03 65.15 225.49Q64.14 226.95 64.14 230.20Q64.14 233.34 65.15 234.65Q66.16 235.96 68.07 235.96Q69.11 235.96 69.94 235.62Q70.76 235.29 71.77 234.50L74.46 238.28Q71.51 240.64 67.77 240.64Q64.74 240.64 62.53 239.35Q60.33 238.06 59.13 235.72Q57.93 233.38 57.93 230.24Q57.93 227.10 59.13 224.67Q60.33 222.24 62.53 220.87Q64.74 219.50 67.66 219.50ZM85.57 219.50Q90.13 219.50 92.71 222.29Q95.29 225.08 95.29 230.09Q95.29 233.27 94.12 235.64Q92.94 238.02 90.75 239.33Q88.56 240.64 85.57 240.64Q81.05 240.64 78.45 237.85Q75.85 235.06 75.85 230.05Q75.85 226.87 77.02 224.50Q78.20 222.12 80.39 220.81Q82.58 219.50 85.57 219.50M85.57 223.84Q83.78 223.84 82.88 225.36Q81.98 226.87 81.98 230.05Q81.98 233.31 82.86 234.80Q83.74 236.30 85.57 236.30Q87.37 236.30 88.26 234.78Q89.16 233.27 89.16 230.09Q89.16 226.84 88.28 225.34Q87.40 223.84 85.57 223.84ZM120.76 219.50Q123.12 219.50 124.54 221.09Q125.96 222.68 125.96 225.49L125.96 240L120.05 240L120.05 226.50Q120.05 223.84 118.37 223.84Q117.44 223.84 116.72 224.48Q116.01 225.11 115.34 226.42L115.34 240L109.43 240L109.43 226.50Q109.43 223.84 107.75 223.84Q106.85 223.84 106.12 224.50Q105.39 225.15 104.72 226.42L104.72 240L98.81 240L98.81 220.14L103.97 220.14L104.38 222.46Q105.54 220.96 106.94 220.23Q108.35 219.50 110.14 219.50Q111.79 219.50 113.00 220.33Q114.22 221.15 114.82 222.65Q116.01 221.08 117.45 220.29Q118.89 219.50 120.76 219.50ZM141.52 219.50Q145.34 219.50 147.19 222.25Q149.04 225.00 149.04 230.01Q149.04 233.08 148.08 235.49Q147.13 237.91 145.34 239.27Q143.54 240.64 141.15 240.64Q138.15 240.64 136.32 238.54L136.32 247.67L130.41 248.30L130.41 220.14L135.61 220.14L135.91 222.35Q137.07 220.89 138.55 220.20Q140.02 219.50 141.52 219.50M139.35 236.30Q142.90 236.30 142.90 230.09Q142.90 226.57 142.10 225.21Q141.30 223.84 139.65 223.84Q138.72 223.84 137.84 224.46Q136.96 225.08 136.32 226.16L136.32 234.54Q137.52 236.30 139.35 236.30ZM168.52 234.24Q168.52 235.36 168.84 235.89Q169.16 236.41 169.87 236.67L168.64 240.52Q166.80 240.37 165.66 239.74Q164.52 239.10 163.85 237.68Q161.90 240.64 157.86 240.64Q154.91 240.64 153.15 238.92Q151.39 237.20 151.39 234.43Q151.39 231.17 153.79 229.45Q156.18 227.73 160.71 227.73L162.73 227.73L162.73 226.87Q162.73 225.11 161.98 224.46Q161.23 223.81 159.36 223.81Q158.39 223.81 157.00 224.09Q155.62 224.37 154.16 224.85L152.82 220.96Q154.69 220.25 156.65 219.88Q158.61 219.50 160.30 219.50Q164.56 219.50 166.54 221.26Q168.52 223.02 168.52 226.54L168.52 234.24M159.59 236.41Q160.56 236.41 161.36 235.92Q162.17 235.44 162.73 234.54L162.73 230.99L161.27 230.99Q159.25 230.99 158.26 231.70Q157.27 232.41 157.27 233.90Q157.27 235.10 157.88 235.76Q158.50 236.41 159.59 236.41ZM184.87 219.50Q187.45 219.50 188.91 221.08Q190.37 222.65 190.37 225.49L190.37 240L184.46 240L184.46 226.50Q184.46 225.00 183.99 224.42Q183.52 223.84 182.59 223.84Q180.79 223.84 179.15 226.42L179.15 240L173.24 240L173.24 220.14L178.40 220.14L178.81 222.50Q180.12 221.00 181.59 220.25Q183.07 219.50 184.87 219.50ZM205.77 240.04Q204.58 243.89 201.87 245.97Q199.15 248.04 194.59 248.30L193.96 244.15Q196.80 243.78 198.16 242.88Q199.53 241.98 200.35 240L198.33 240L192.27 220.14L198.56 220.14L202.11 236.22L206.00 220.14L212.09 220.14L205.77 240.04Z" fill="#ffffff" style="fill: rgb(255, 255, 255);"></path></g><g id="SvgjsG1008" rel="mainfill" name="symbol" xmlns:name="symbol_mainfill" transform="translate(-10.469011237107207,-5.715971896917984) scale(0.879380291833536)" fill="#ffffff"><polygon points="76.5646667,21.8386002 65.037529,28.4960899 76.5657806,35.152462 76.5657806,48.4797363 88.0950089,41.8233643   88.0950089,28.4960899 "></polygon><polygon points="11.9049873,28.4960899 23.4332409,35.1535797 23.4332409,48.4819717 34.9626122,41.824482 34.9626122,28.4960899   23.4319839,21.8408337 "></polygon><polygon points="38.4701424,13.156373 49.9995117,19.8138638 49.9995117,33.1411362 61.5277634,26.4847641 61.5277634,13.156373   49.998394,6.5 "></polygon><polygon points="38.4701424,43.9028511 49.9995117,50.5603409 49.9995117,63.8876152 61.5277634,57.2301254 61.5277634,43.9028511   49.998394,37.246479 "></polygon><polygon points="38.4701424,74.5487595 49.9995117,81.2051392 49.9995117,94.5324097 61.5277634,87.8760376 61.5277634,74.5487595   49.998394,67.8912735 "></polygon><polygon points="65.037529,59.2090454 76.5657806,65.866539 76.5657806,79.192688 88.0950089,72.535202 88.0950089,59.2090454   76.5646667,52.5515556 "></polygon><polygon points="11.9049873,59.2090454 23.4332409,65.866539 23.4332409,79.1938095 34.9626122,72.5363159 34.9626122,59.2090454   23.4319839,52.5526733 "></polygon></g></svg>