<!DOCTYPE svg PUBLIC "-//W3C//DTD SVG 20010904//EN" "http://www.w3.org/TR/2001/REC-SVG-20010904/DTD/svg10.dtd">
<svg version="1.0" xmlns="http://www.w3.org/2000/svg" width="75px" height="72px" viewBox="0 0 750 720" preserveAspectRatio="xMidYMid meet">
<g id="layer101" fill="#ffa500" stroke="none">
 <path d="M0 360 l0 -360 375 0 375 0 0 360 0 360 -375 0 -375 0 0 -360z"/>
 </g>
<g id="layer102" fill="#fffefb" stroke="none">
 <path d="M255 490 c-18 -20 -18 -22 33 -73 l52 -52 -50 -51 -51 -50 24 -22 23 -22 49 50 49 50 53 -52 53 -52 22 22 23 22 -53 52 -52 53 52 52 52 53 -22 22 -22 22 -53 -52 -53 -52 -49 50 c-27 27 -52 50 -56 50 -3 0 -14 -9 -24 -20z"/>
 </g>

</svg>